<svg t="1721486470791" class="icon" viewBox="0 0 1024 1024" version="1.1"
    xmlns="http://www.w3.org/2000/svg" p-id="1420" width="200" height="200">
    <path d="M723.017326 720.896l55.222857-57.782857a29.110857 29.110857 0 0 1 28.635428-8.448 29.952 29.952 0 0 1 21.284572 21.357714 30.866286 30.866286 0 0 1-7.68 29.549714l-56.027429 58.697143 56.027429 58.697143c7.753143 7.68 10.825143 19.053714 8.009143 29.732572a29.952 29.952 0 0 1-21.467429 21.540571 29.147429 29.147429 0 0 1-28.818286-8.850286l-55.222857-57.782857-55.149714 57.782857a29.110857 29.110857 0 0 1-28.672 8.484572 29.952 29.952 0 0 1-21.321143-21.357715 30.866286 30.866286 0 0 1 7.68-29.549714l56.064-58.697143-56.027428-58.697143a30.829714 30.829714 0 0 1-8.045715-29.732571 29.952 29.952 0 0 1 21.504-21.540571 29.147429 29.147429 0 0 1 28.818286 8.850285l55.186286 57.782857z" fill="#F56C6C" p-id="1421"></path>
    <path d="M423.131611 897.718857c19.638857 0 35.547429 16.274286 35.547429 36.388572s-15.908571 36.388571-35.510857 36.388571H190.427611a151.990857 151.990857 0 0 1-108.8-46.189714A159.744 159.744 0 0 1 36.571611 812.763429V157.732571C36.571611 70.619429 105.472183 0 190.427611 0H687.54304c84.992 0 153.856 70.582857 153.856 157.696v277.284571c0 20.114286-15.908571 36.388571-35.474286 36.388572a35.949714 35.949714 0 0 1-35.547428-36.388572V157.696c0-22.528-8.704-44.105143-24.246857-60.050286a81.846857 81.846857 0 0 0-58.587429-24.868571H190.427611c-21.942857 0-43.044571 8.96-58.587428 24.868571a86.016 86.016 0 0 0-24.246857 60.050286v655.104c0 22.528 8.704 44.105143 24.246857 60.050286 15.542857 15.908571 36.608 24.868571 58.587428 24.868571h232.740572z" fill="#F56C6C" p-id="1422"></path>
    <path d="M237.787611 291.108571a35.949714 35.949714 0 0 1-35.510857-36.388571c0-20.114286 15.872-36.388571 35.474286-36.388571h378.733714c19.602286 0 35.510857 16.274286 35.510857 36.388571s-15.908571 36.388571-35.474285 36.388571H237.75104zM237.787611 485.193143a35.949714 35.949714 0 0 1-35.510857-36.388572c0-20.114286 15.872-36.388571 35.474286-36.388571h378.733714c19.638857 0 35.510857 16.274286 35.510857 36.388571s-15.872 36.388571-35.474285 36.388572H237.75104zM237.787611 679.241143a35.364571 35.364571 0 0 1-30.756571-18.176 37.193143 37.193143 0 0 1 0-36.388572 35.364571 35.364571 0 0 1 30.72-18.212571h142.043429c19.602286 0 35.474286 16.310857 35.474285 36.388571 0 20.114286-15.872 36.388571-35.474285 36.388572H237.787611z" fill="#F56C6C" p-id="1423"></path>
    <path d="M711.168183 504.539429c139.958857 0 253.403429 116.297143 253.403428 259.730285S851.12704 1024 711.168183 1024c-139.922286 0-253.366857-116.297143-253.366857-259.730286s113.444571-259.730286 253.366857-259.730285z m0 60.672c-107.264 0-194.194286 89.124571-194.194286 199.058285s86.930286 199.058286 194.194286 199.058286 194.194286-89.124571 194.194286-199.058286-86.930286-199.058286-194.194286-199.058285z" fill="#F56C6C" p-id="1424"></path>
</svg>