<svg t="1721050136567" class="icon" viewBox="0 0 1024 1024" version="1.1"
    xmlns="http://www.w3.org/2000/svg" p-id="1383" width="200" height="200">
    <path d="M204.8 260.266667l162.133333 221.866666 34.133334-34.133333-157.866667-213.333333V157.866667L128 68.266667l-46.933333 29.866666 51.2 136.533334 72.533333 25.6z m366.933333 341.333333L469.333333 712.533333l170.666667 234.666667c17.066667 21.333333 46.933333 38.4 72.533333 34.133333 25.6 0 51.2-21.333333 59.733334-42.666666 8.533333-21.333333 4.266667-59.733333-12.8-81.066667l-187.733334-256z m149.333334 332.8c-17.066667 12.8-38.4 8.533333-51.2-8.533333-12.8-17.066667-8.533333-38.4 8.533333-51.2 17.066667-12.8 38.4-8.533333 51.2 8.533333 12.8 17.066667 8.533333 38.4-8.533333 51.2 4.266667 0 4.266667 0 0 0z" fill="#909399" p-id="1384"></path>
    <path d="M942.933333 166.4l-153.6 153.6L686.933333 213.333333l153.6-153.6c-29.866667-12.8-59.733333-17.066667-89.6-17.066666-55.466667 0-106.666667 21.333333-149.333333 59.733333-59.733333 59.733333-76.8 149.333333-46.933333 226.133333l-140.8 149.333334-25.6 34.133333-311.466667 328.533333c-25.6 25.6-17.066667 68.266667 17.066667 102.4 21.333333 21.333333 42.666667 29.866667 64 29.866667 12.8 0 25.6-4.266667 38.4-12.8l256-273.066667 106.666666-110.933333 119.466667-128c25.6 8.533333 51.2 12.8 76.8 12.8 55.466667 0 106.666667-21.333333 149.333333-59.733333 55.466667-64 72.533333-153.6 38.4-234.666667zM192 896c-8.533333 8.533333-17.066667 8.533333-25.6 8.533333-8.533333 0-17.066667-4.266667-25.6-8.533333-12.8-12.8-12.8-34.133333 0-51.2 8.533333-8.533333 17.066667-8.533333 25.6-8.533333 8.533333 0 17.066667 4.266667 25.6 8.533333 12.8 12.8 12.8 34.133333 0 51.2z" fill="#909399" p-id="1385"></path>
</svg>