<svg t="1721273103223" class="icon" viewBox="0 0 1024 1024" version="1.1"
    xmlns="http://www.w3.org/2000/svg" p-id="1395" width="200" height="200">
    <path d="M461.21 878.36h-295a42.3 42.3 0 0 1-40.24-41v-2.31C126 669.16 250.73 532 416.15 515.85h35.4c20.68-1.58 90.95-9.09 126.94-39.65l13.16-10.29 0.09-0.08c56.51-47.31 88.92-114.94 88.92-185.53 0-129.85-106.95-235.5-238.42-235.5-124.54 0-229.76 107.85-229.76 235.5 0 70.54 32.48 138.22 89.1 185.68l3.33 2.17-1.43 0.52C150.67 529.22 51.93 673 51.93 835c0 65.75 51.51 117.26 117.26 117.26h292c13.92 0 34.08-13.15 34.1-36.94 0-27.11-20.38-36.96-34.08-36.96zM281.94 278.78c0-92.4 75.18-167.58 167.58-167.58S617.1 186.38 617.1 278.78c0 90.84-77.39 167.58-169 167.58s-166.16-75.18-166.16-167.58z" fill="#409Eff" p-id="1396"></path>
    <path d="M953.1 633.74A249.81 249.81 0 0 0 722.84 481h-0.2a250.24 250.24 0 0 0-0.18 500.48h0.18A250.25 250.25 0 0 0 953.1 633.74z m-40.69 97.44c0 104.74-85.22 190-190 190s-190-85.22-190-190 85.22-189.95 190-189.95 190 85.21 190 189.95z" fill="#409Eff" p-id="1397"></path>
    <path d="M819.3 657.41H690.21A26.77 26.77 0 0 0 652 620l-45.69 45.72-2.49 3L603 670a26.54 26.54 0 0 0-2.19 4.36l-0.5 1-0.18 0.89a27.62 27.62 0 0 0-1.07 5.49l-0.13 0.67v0.51a26 26 0 0 0 0 3.18l0.24 2.15 0.27 1.13a25.77 25.77 0 0 0 1.17 4.12l0.34 1.18 0.5 0.8a26.22 26.22 0 0 0 3.07 5l0.53 0.86 0.75 0.65a27.3 27.3 0 0 0 4.87 4.24l0.3 0.25 0.4 0.29a21.51 21.51 0 0 0 3.42 1.73c0.38 0.17 0.78 0.33 1.23 0.5l0.45 0.17a27.31 27.31 0 0 0 3.73 1.08l2.44 0.49h65.11l128.54 0.1 2.93 0.06h1.11a26.77 26.77 0 0 0 18-46.08 26.5 26.5 0 0 0-19.03-7.41zM842.87 765.87l-4.48-6-3.13-2.48 0.29-1.83-5.81-1.58-6.23-3.15-0.57 1.32-197.25-0.24h-1.11a26.77 26.77 0 0 0 1 53.53h129.11a26.94 26.94 0 0 0-7.47 18.56A26.77 26.77 0 0 0 774 850.7h0.1a26.77 26.77 0 0 0 18.9-7.85l45.62-45.65 3.6-4.57 2.83-6.36 1.14-7.67-0.76-6.13z" fill="#409Eff" p-id="1398"></path>
</svg>