<svg t="1721049359561" class="icon" viewBox="0 0 1024 1024" version="1.1"
    xmlns="http://www.w3.org/2000/svg" p-id="2131" width="200" height="200">
    <path d="M416.70468039 921.60836382H257.46060288c-19.54718265 0-35.41003037-16.017408-35.41003037-35.68876659v-95.66586652h166.85977714c-0.0066048-0.85866496-0.03302514-1.714688-0.03302627-2.57467505a336.95341909 336.95341909 0 0 1 7.07540195-68.80681984H222.05057251V148.34472051c0-19.69645795 15.86284771-35.70858098 35.41003037-35.70858212v0.0211365h479.27518663c19.54718265 0 35.40738845 16.017408 35.40738844 35.68744562v307.25945571a333.21228061 333.21228061 0 0 1 70.78042966 18.17728114V148.34472051c0-59.04313685-47.64138496-107.07026147-106.21027556-107.07026148H257.46060288c-58.56888946 0-106.22876899 48.02712349-106.22876899 107.05044594v737.57355576c0 59.04313685 47.63874304 107.07026147 106.20366961 107.07026149h201.59344299a335.27307719 335.27307719 0 0 1-42.3242661-71.3603584z" fill="#409EFF" p-id="2132"></path>
    <path d="M654.98690333 230.56785409c19.56567609 0 35.41003037-15.97117213 35.41003036-35.68744562 0-19.73873095-15.84435427-35.71386595-35.41003036-35.71386481H343.20822613c-19.56171321 0-35.38361003 15.97513501-35.38360888 35.69272832a35.52099555 35.52099555 0 0 0 10.30001891 25.16681613 35.53420629 35.53420629 0 0 0 25.08358997 10.50081395v0.04095203h311.7786772z" fill="#409EFF" p-id="2133"></path>
    <path d="M882.31123854 692.0805615c-7.683072-13.31195221-24.70709931-17.86948267-38.0150875-10.18641067-13.31063125 7.68835584-17.87212459 24.70709931-10.18641067 38.0150875 12.13888285 21.05975353 18.56962446 45.13144035 18.56962446 69.58622493 0 76.81486393-62.43684579 139.30058866-139.14602837 139.30058866-76.72767602 0-139.14470741-62.48572359-139.14470741-139.30058866 0-76.78976455 62.41703139-139.27548928 139.14470741-139.27548928h0.13210169c0 16.88003584 0.04359395 29.90928896 0.04359396 31.4879124 0 13.40178205-0.15191723 24.22228309 14.1111717 24.22228309 7.22731805 0 13.71882723-2.8124581 18.39657073-7.35809992l0.10832327 0.06208854s72.65892466-68.32728974 76.1028335-71.15956338a6.43602546 6.43602546 0 0 0 0.34478648-9.74254649l-77.09624206-72.20185088-0.13210168 0.10832328a26.69127566 26.69127566 0 0 0-17.87740957-6.86271603c-14.28422542 0-14.11117056 10.82050219-14.11117056 24.22228424l0.04359395 31.48791125h-0.06737237c-107.41372701 0-194.79281437 87.50722731-194.7928155 195.01078414 0 107.52469333 87.37908736 195.01078414 194.7928155 195.01078414 107.39523243 0 194.79413646-87.48741177 194.79413533-195.01078414 0-34.1814784-8.97371136-67.76453347-26.01491229-97.39508622v-0.0211365z m0 0" fill="#409EFF" p-id="2134"></path>
</svg>