<svg t="1721048995136" class="icon" viewBox="0 0 1024 1024" version="1.1"
    xmlns="http://www.w3.org/2000/svg" p-id="1382" width="256" height="256">
    <path d="M988.11391579 492.20426596a26.68889142 26.68889142 0 0 0-37.82399183 0l-403.64738939 403.6473894a26.68889142 26.68889142 0 1 0 37.82399183 37.82399182l403.64738939-403.64738939a26.68889142 26.68889142 0 0 0 0-37.82399183zM940.1711224 777.12143803h-107.06487405c-14.80261362 0-26.77726525 7.29083955-26.77726524 22.09345317s11.97465162 22.09345317 26.77726524 22.09345315h107.06487405c14.80261362 0 26.77726525-7.29083955 26.77726525-22.09345315s-11.97465162-22.09345317-26.77726525-22.09345317zM940.1711224 865.4952507h-107.06487405c-14.80261362 0-26.77726525 7.29083955-26.77726524 22.09345316s11.97465162 22.09345317 26.77726524 22.09345317h107.06487405c14.80261362 0 26.77726525-7.29083955 26.77726525-22.09345317s-11.97465162-22.09345317-26.77726525-22.09345316zM622.46726585 700.72227698c14.80261362 0 22.09345317-11.97465162 22.09345317-26.77726525V600.37381268h81.52484219c14.80261362 0 26.77726525-7.29083955 26.77726523-22.09345318s-11.97465162-22.09345317-26.77726523-22.09345316H644.56071902v-86.95983167c0-14.80261362-7.29083955-26.77726525-22.09345317-26.77726524s-22.09345317 11.97465162-22.09345317 26.77726524V556.18690634h-79.05037545c-14.80261362 0-26.77726525 7.29083955-26.77726523 22.09345316s11.97465162 22.09345317 26.77726523 22.09345318H600.37381268v73.57119905c0 14.80261362 7.29083955 26.77726525 22.09345317 26.77726525zM88.38012894 599.62263527a35.21696436 35.21696436 0 0 0-35.17277744 35.17277743v277.58214563c0 19.35386498 15.81891246 35.17277744 35.17277744 35.17277745a35.26115125 35.26115125 0 0 0 35.17277745-35.17277745v-277.58214563a35.26115125 35.26115125 0 0 0-35.17277745-35.17277743zM264.59751141 427.07276601a35.26115125 35.26115125 0 0 0-35.17277744 35.17277745v450.35294939c0 19.35386498 15.81891246 35.17277744 35.17277744 35.17277744a35.26115125 35.26115125 0 0 0 35.17277745-35.17277744V462.24554346a35.21696436 35.21696436 0 0 0-35.17277745-35.17277745zM429.76816731 599.62263527a35.26115125 35.26115125 0 0 0-35.17277745 35.17277743v277.58214563c0 19.35386498 15.81891246 35.17277744 35.17277745 35.17277745a35.21696436 35.21696436 0 0 0 35.17277744-35.17277745v-277.58214563a35.26115125 35.26115125 0 0 0-35.17277744-35.17277743z" fill="#E6A23C" p-id="1383" data-spm-anchor-id="a313x.manage_type_myprojects.0.i1.4eb33a81Dhv3IZ" class="selected"></path>
    <path d="M974.99040461 99.16173409l-170.0312156-36.05651556a28.85404985 28.85404985 0 0 0-34.28903932 22.40276151 28.85404985 28.85404985 0 0 0 22.40276152 34.2890393l90.45059728 19.17711735-256.10730913 202.06672269-215.05767316-180.01745643a35.34952507 35.34952507 0 0 0-47.10324215-3.18145724l-325.92262115 257.16779489a35.21696436 35.21696436 0 0 0 43.52410274 55.23363291l303.38729893-239.22791092 212.36227185 177.89648492a35.92395486 35.92395486 0 0 0 24.34698539 8.17457768 34.99602981 34.99602981 0 0 0 30.04709632-6.58384905l271.9262216-214.52743026-20.23760311 95.6204653a28.85404985 28.85404985 0 0 0 22.40276151 34.28903933 28.85404985 28.85404985 0 0 0 34.28903932-22.40276152l36.05651556-170.07540248a29.03079746 29.03079746 0 0 0-22.4469484-34.24485242z m0 0" fill="#E6A23C" p-id="1384" data-spm-anchor-id="a313x.manage_type_myprojects.0.i2.4eb33a81Dhv3IZ" class="selected"></path>
</svg>