<svg t="1721487856569" class="icon" viewBox="0 0 1024 1024" version="1.1"
    xmlns="http://www.w3.org/2000/svg" p-id="1900" width="200" height="200">
    <path d="M512 1024a512 512 0 1 1 512-512 513.493333 513.493333 0 0 1-512 512z m0-938.666667a426.666667 426.666667 0 1 0 426.666667 426.666667 427.904 427.904 0 0 0-426.666667-426.666667z m-4.266667 610.133334a32.341333 32.341333 0 0 1-8.533333 17.066666 46.08 46.08 0 0 1-29.866667 12.8 36.522667 36.522667 0 0 1-38.4-29.866666l-119.466666-119.466667a40.192 40.192 0 0 1 4.266666-55.466667 38.912 38.912 0 0 1 51.2 0l93.866667 93.866667 192-337.066667c4.266667-21.333333 29.866667-25.6 51.2-17.066666a47.232 47.232 0 0 1 17.066667 59.733333z" fill="#409EFF" p-id="1901"></path>
</svg>