<svg t="1721048876791" class="icon" viewBox="0 0 1024 1024" version="1.1"
    xmlns="http://www.w3.org/2000/svg" p-id="1380" width="200" height="200">
    <path d="M649.142857 502.857143c0-31.085714-23.771429-54.857143-54.857143-54.857143s-54.857143 23.771429-54.857143 54.857143v18.285714h109.714286v-18.285714zM594.285714 374.857143a18.285714 18.285714 0 1 0 0-36.571429 18.285714 18.285714 0 0 0 0 36.571429z" fill="#909399" p-id="1381"></path>
    <path d="M978.285714 265.142857h-109.714285v-109.714286c0-20.114286-16.457143-36.571429-36.571429-36.571428h-768c-20.114286 0-36.571429 16.457143-36.571429 36.571428v548.571429c0 20.114286 16.457143 36.571429 36.571429 36.571429h109.714286v109.714285c0 20.114286 16.457143 36.571429 36.571428 36.571429h768c20.114286 0 36.571429-16.457143 36.571429-36.571429v-548.571428c0-20.114286-16.457143-36.571429-36.571429-36.571429z m-512 237.714286c0-40.228571 20.114286-76.8 49.371429-100.571429-7.314286-12.8-12.8-29.257143-12.8-45.714285 0-51.2 40.228571-91.428571 91.428571-91.428572s91.428571 40.228571 91.428572 91.428572c0 16.457143-5.485714 32.914286-12.8 45.714285 29.257143 23.771429 49.371429 60.342857 49.371428 100.571429v54.857143c0 20.114286-16.457143 36.571429-36.571428 36.571428h-182.857143c-20.114286 0-36.571429-16.457143-36.571429-36.571428v-54.857143z m-274.285714-219.428572h219.428571v73.142858h-219.428571v-73.142858z m0 109.714286h146.285714v73.142857h-146.285714v-73.142857z m0 182.857143v-73.142857h73.142857v73.142857h-73.142857z m749.714286 237.714286h-694.857143v-73.142857h585.142857c20.114286 0 36.571429-16.457143 36.571429-36.571429v-365.714286h73.142857v475.428572z" fill="#909399" p-id="1382"></path>
</svg>