<svg t="1721049155021" class="icon" viewBox="0 0 1024 1024" version="1.1"
    xmlns="http://www.w3.org/2000/svg" p-id="1527" width="256" height="256">
    <path d="M1005.94725973 498.58939307c-1.27431147-3.2768-134.83425173-324.88865173-494.00794133-324.8886528S19.0843264 495.31259307 17.74933333 498.58939307a35.01321493 35.01321493 0 0 0 2.54862187 30.9475552c7.82791147 13.0465184 195.63709653 320.03413333 491.7020448 320.03413333 295.88290347 0 483.81345173-306.98761493 491.5806816-320.03413333a34.83117013 34.83117013 0 0 0 2.36657813-30.9475552z m-494.00794133 281.13730346c-221.79081493 0-382.05060693-212.26382187-422.10038507-271.12485973 29.6732448-60.19602987 150.7328-265.2994368 422.10038507-265.2994368 271.30690347 0 392.48782187 205.16408853 422.16106667 265.2994368-40.23182187 58.8610368-200.43093333 271.12485973-422.16106667 271.12485973z m0 0" fill="#73767a" p-id="1528" data-spm-anchor-id="a313x.manage_type_myprojects.0.i1.4eb33a8121CMCI" class="selected"></path>
    <path d="M511.9393184 282.01718507a226.70601493 226.70601493 0 0 0-226.52397013 226.46328853 226.76669653 226.76669653 0 0 0 226.52397013 226.64533333 226.76669653 226.76669653 0 0 0 226.402608-226.64533333A226.70601493 226.70601493 0 0 0 511.9393184 282.01718507z m0 383.3249184a157.0436736 157.0436736 0 0 1-156.86162987-156.86162987 157.0436736 157.0436736 0 0 1 156.86162987-156.8009472 157.0436736 157.0436736 0 0 1 156.80094827 156.8009472 157.0436736 157.0436736 0 0 1-156.80094827 156.86162987z m0 0" fill="#73767a" p-id="1529" data-spm-anchor-id="a313x.manage_type_myprojects.0.i2.4eb33a8121CMCI" class="selected"></path>
</svg>