<svg t="1721486226147" class="icon" viewBox="0 0 1074 1024" version="1.1"
    xmlns="http://www.w3.org/2000/svg" p-id="1712" width="200" height="200">
    <path d="M576.125179 218.945054v304.667336h214.586283c16.033844 0 29.152444 13.1186 29.152445 29.152445 0 16.009551-13.1186 29.128151-29.152445 29.12815H546.972735c-16.033844 0-29.152444-13.1186-29.152444-29.12815V218.945054c0-16.033844 13.1186-29.152444 29.152444-29.152444 16.033844 0 29.152444 13.1186 29.152444 29.152444z m344.484716 651.654304a505.964963 505.964963 0 0 1-359.86263 149.867857h-1.020336a505.94067 505.94067 0 0 1-359.449637-148.458822c-91.514381-91.174269-143.5272-211.08799-148.847522-339.383039l-37.558065 0.631637a8.016922 8.016922 0 0 1-5.830489-13.701649l68.313894-68.411069a8.041216 8.041216 0 0 1 11.102223-0.267231l72.273768 66.030286a8.016922 8.016922 0 0 1-5.271734 13.944586l-39.501562 0.680224c5.028797 111.678155 50.482316 216.019612 130.189957 295.411435a442.874215 442.874215 0 0 0 314.579167 129.94702h0.874574c245.803692-0.46158 445.40076-200.811753 444.914886-446.615446-0.485874-245.46358-200.374467-444.866299-445.765166-444.866299h-0.874573a446.275334 446.275334 0 0 0-390.132585 231.470407 31.751871 31.751871 0 1 1-55.729756-30.610066A509.803369 509.803369 0 0 1 558.755181 1.832226h0.996042c280.42222 0 508.807327 227.802058 509.341788 508.321453a506.037845 506.037845 0 0 1-148.483116 360.445679z" fill="#409EFF" p-id="1713"></path>
</svg>