<svg t="1722619349834" class="icon" viewBox="0 0 1024 1024" version="1.1"
    xmlns="http://www.w3.org/2000/svg" p-id="1574" width="200" height="200">
    <path d="M650.711635 628.115651c83.555851 0 151.271568 66.912664 151.271568 149.489129 0 82.604083-67.715718 149.516747-151.271568 149.516747-83.534606 0-151.226954-66.914788-151.226955-149.516747 0-82.576465 67.692349-149.489129 151.226955-149.489129zM183.446838 281.166606c87.231203 29.281726 72.678506 173.576498 157.375203 136.098523 64.32717-28.504166 100.538954-3.977029 100.538955-3.977029 85.446639 60.940747-107.726075 87.823934-107.749444 87.796315-87.231203 3.180349-98.731021-44.301809-98.731021-44.301809-48.663369 48.100382-50.235485 173.34068-50.271602 185.743402v219.390938c-67.324813 68.799203-112.221477 0-112.221477 0V646.696365c-44.866921-124.702805-15.039203-219.531154-15.039203-219.531153C94.605278 284.085643 179.943568 281.223967 183.342739 281.166606z m467.264797 427.664465c-38.436116 0-69.604382 30.809228-69.604382 68.801327 0 37.989975 31.166141 68.799203 69.604382 68.799204 38.455237 0 69.602257-30.809228 69.602257-68.799204 0-37.970855-31.144896-68.801328-69.602257-68.801327zM430.375303 187.785029c51.614274-33.23751 256.259187 183.733643 261.608631 206.996714l285.438937-105.763054v508.694307h-141.530821c0.620349 0 0.953892-15.221909 0.953892-21.605975 0-102.914124-84.384398-188.953494-188.488232-188.953494-104.105959 0-188.492481 85.155585-188.492482 188.048465 0 6.384066 0.310174 21.599602 0.956017 21.599601h-35.71678c-1.168465 0-2.347552-0.04249-3.533013-0.121095H373.908714c-17.599203 0-31.86722-14.268017-31.86722-31.86722v-61.609958c0-1.157842 0.063734-2.302938 0.182705-3.428913v-98.979585c0-70.959801 42.914523-88.794822 72.308847-99.710407 19.596216-7.276349 90.602755-34.191402 213.017493-80.743037 0 0-133.77434-154.245842-202.809361-170.840166 0 0-31.429577-37.888 5.634125-61.716183z m93.175502 329.143768s-165.671303 4.363685-124.862141 82.680564zM259.484149 96.030805c54.822241-0.025494 99.277012 43.910905 99.277013 98.108548 0 54.199768-44.456896 98.114921-99.277013 98.114921-54.792498 0-99.243021-43.913029-99.24302-98.112797s44.450523-98.108548 99.24302-98.108548z" fill="#409EFF" p-id="1575"></path>
</svg>