<svg t="1721632218273" class="icon" viewBox="0 0 1024 1024" version="1.1"
    xmlns="http://www.w3.org/2000/svg" p-id="1489" width="200" height="200">
    <path d="M764.330667 378.645333H246.741333c-17.706667 0-32.021333-14.592-32.021333-32.597333s14.314667-32.618667 32-32.618667h517.610667c17.685333 0 32 14.592 32.021333 32.597334 0 18.005333-14.336 32.618667-32 32.618666h-0.021333z m96.042666 265.066667c-17.728 0-32.149333 14.549333-32.32 32.618667v178.24a18.410667 18.410667 0 0 1-18.24 18.282666H201.258667a18.112 18.112 0 0 1-18.24-17.984V679.978667c-0.170667-18.048-14.592-32.597333-32.32-32.597334-17.728 0-32.149333 14.549333-32.32 32.597334v174.890666C118.549333 901.333333 155.648 938.837333 201.258667 938.666667h609.152c45.525333 0 82.538667-37.418667 82.858666-83.797334v-178.56c-0.149333-18.048-14.570667-32.597333-32.298666-32.597333h-0.597334z m-24.234666-141.376a112.896 112.896 0 0 1-54.165334 12.501333 112.042667 112.042667 0 0 1-96.32-54.549333 51.989333 51.989333 0 0 0-8.682666-13.696 39.765333 39.765333 0 0 0-29.930667-13.12c-11.370667 0.021333-22.208 4.906667-29.909333 13.418667-3.413333 4.032-6.229333 8.533333-8.384 13.397333-32.064 53.610667-100.736 70.570667-153.365334 37.909333a112.576 112.576 0 0 1-37.205333-37.909333 53.738667 53.738667 0 0 0-7.786667-12.48 44.586667 44.586667 0 0 0-62.528 0 52.608 52.608 0 0 0-8.96 14.613333 112.853333 112.853333 0 0 1-96.96 52.714667 111.381333 111.381333 0 0 1-53.248-11.584C139.477333 477.482667 116.544 418.56 134.826667 365.226667v-2.730667l79.573333-191.658667c1.792-4.885333 6.592-19.818667 31.722667-19.818666H778.666667a33.749333 33.749333 0 0 1 34.112 21.034666l75.392 187.690667v3.669333c18.154667 52.842667-4.181333 111.274667-52.650667 137.706667l0.597333 1.216z m115.2-155.690667a31.232 31.232 0 0 0-1.813334-5.482666l-75.989333-191.957334c-14.72-39.893333-53.034667-65.621333-94.848-63.68H246.144c-40.554667-2.602667-77.994667 22.165333-92.16 60.928L72.597333 341.76a41.408 41.408 0 0 0 0 4.586667c-26.389333 82.752 9.6 172.842667 85.269334 213.269333a174.762667 174.762667 0 0 0 83.776 19.52 178.218667 178.218667 0 0 0 135.829333-64 174.336 174.336 0 0 0 248.810667 20.864c7.36-6.4 14.208-13.354667 20.48-20.864a175.232 175.232 0 0 0 249.941333 22.144A182.016 182.016 0 0 0 960 401.792a177.088 177.088 0 0 0-8.682667-55.146667z" fill="#409Eff" p-id="1490"></path>
</svg>