<svg t="1723043008384" class="icon" viewBox="0 0 1024 1024" version="1.1"
    xmlns="http://www.w3.org/2000/svg" p-id="1912" width="200" height="200">
    <path d="M512 0C794.762847 0 1024 229.237153 1024 512S794.762847 1024 512 1024 0 794.762847 0 512 229.237153 0 512 0z m0 52.067797C257.978576 52.067797 52.067797 257.978576 52.067797 512S257.978576 971.932203 512 971.932203 971.932203 766.021424 971.932203 512 766.021424 52.067797 512 52.067797z m0 138.847457a26.033898 26.033898 0 0 1 26.033898 26.033899v262.942372l223.093153 162.087051a26.033898 26.033898 0 1 1-30.615865 42.122848L505.856 520.851525l-1.787661-1.423186A26.033898 26.033898 0 0 1 485.966102 494.644068v-277.694915a26.033898 26.033898 0 0 1 26.033898-26.033899z" fill="#e7e8ea" p-id="1913"></path>
</svg>