<svg t="1721012130307" class="icon" viewBox="0 0 1024 1024" version="1.1"
    xmlns="http://www.w3.org/2000/svg" p-id="1391" width="200" height="200">
    <path d="M806.3 150.2c-5.4-5.4-14.3-8.9-25-7.1-19.6 0-35.7 16.1-35.7 35.7 0 8.9 3.6 17.8 10.7 25 89.2 73.1 146.3 183.7 146.3 306.8 0 217.6-174.8 392.4-392.4 392.4S117.8 728.1 117.8 510.5c0-123.1 55.3-231.9 142.7-303.2 8.9-7.1 16.1-17.8 16.1-30.3 0-19.6-16.1-35.7-35.7-35.7-8.9 0-16.1 3.6-23.2 8.9-103.5 85.6-169.5 214-169.5 358.5 0 256.9 206.9 463.8 463.8 463.8s463.8-206.9 463.8-463.8c0-144.4-66-272.9-169.5-358.5z" fill="#67C23A" p-id="1392"></path>
    <path d="M512 622.9c19.6 0 35.7-16.1 35.7-35.7V87.8c0-19.6-16.1-35.7-35.7-35.7s-35.7 16.1-35.7 35.7v499.4c0 19.6 16.1 35.7 35.7 35.7z" fill="#67C23A" p-id="1393"></path>
</svg>