<svg t="1721487721135" class="icon" viewBox="0 0 1024 1024" version="1.1"
    xmlns="http://www.w3.org/2000/svg" p-id="1481" width="200" height="200">
    <path d="M649.6 37.33333333c35.34613333 0 64 28.65386667 64 64v7.46666667h112.608c35.34933333 0 64.928 27.5808 65.5168 62.92693333L891.73333333 172.8v753.06666667c0 35.5008-29.22453333 63.4368-64.45653333 64H197.792c-35.34933333 0-64.928-27.5808-65.5168-62.92693334L132.26666667 925.86666667V172.8c0-35.5008 29.22453333-63.4368 64.45653333-64H311.46666667v-7.46666667c0-34.99306667 28.0832-63.42613333 62.94186666-63.99146666L375.46666667 37.33333333z m64 156.8c0 35.34613333-28.65386667 64-64 64H375.46666667c-35.34613333 0-64-28.65386667-64-64v-8.53333333h-102.4v727.46666667h605.86666666V185.6h-101.33333333z m-76.8-80H388.26666667v67.2h248.53333333v-67.2z" fill="#3791FF" p-id="1482"></path>
    <path d="M630.0768 410.08746667l65.87733333 65.87733333-147.392 147.39306667 0.192 0.192-66.0032 66.00533333-0.192-0.19413333-0.19306666 0.19306666-65.87733334-65.87733333 0.192-0.192-81.25866666-81.25866667 66.0032-66.00533333 81.25866666 81.25866667 147.392-147.392z" fill="#3791FF" p-id="1483"></path>
</svg>