<svg t="1722231718004" class="icon" viewBox="0 0 1024 1024" version="1.1"
    xmlns="http://www.w3.org/2000/svg" p-id="1521" width="200" height="200">
    <path d="M995.028114 752.713143a104.667429 104.667429 0 0 0-51.2-80.457143A863.085714 863.085714 0 0 0 722.132114 589.531429a493.787429 493.787429 0 0 0-216.064 19.382857 1337.124571 1337.124571 0 0 1-142.116571 24.868571 62.537143 62.537143 0 0 0-39.789714 21.942857 55.003429 55.003429 0 0 0-11.337143 41.472 101.668571 101.668571 0 0 0 68.242285 74.678857 683.227429 683.227429 0 0 0 184.612572 0 424.667429 424.667429 0 0 1-93.696 33.206858 262.802286 262.802286 0 0 1-130.779429-8.265143 980.553143 980.553143 0 0 0-207.286857-85.723429c-73.947429-16.603429-96.694857 27.648-102.4 43.885714a55.734857 55.734857 0 0 0 22.747429 66.413715c42.569143 27.648 144.822857 91.282286 181.979428 110.665143 11.337143 5.705143 22.747429 13.824 36.571429 21.942857a353.499429 353.499429 0 0 0 153.6 66.413714 410.404571 410.404571 0 0 0 56.832 2.779429 628.516571 628.516571 0 0 0 218.697143-43.885715 364.982857 364.982857 0 0 1 62.537143-16.603428c17.042286 2.779429 42.569143 8.265143 68.242285 13.824l5.705143 2.779428a85.942857 85.942857 0 0 0 93.915429-33.572571 248.173714 248.173714 0 0 0 62.537143-193.609143z m-105.033143 168.740571a36.059429 36.059429 0 0 1-36.571428 11.117715l-5.705143-2.779429c-28.452571-5.705143-53.979429-13.824-73.947429-16.603429a215.186286 215.186286 0 0 0-90.989714 19.382858 506.075429 506.075429 0 0 1-250.148571 35.913142 282.770286 282.770286 0 0 1-127.853715-55.296 340.187429 340.187429 0 0 0-42.569142-24.868571c-36.571429-19.382857-136.484571-82.944-178.907429-110.665143 0-2.779429 2.852571-8.265143 17.042286-8.265143a36.571429 36.571429 0 0 1 17.042285 2.779429 869.961143 869.961143 0 0 1 193.316572 80.457143c2.852571 2.779429 8.557714 2.779429 11.337143 5.705143a359.862857 359.862857 0 0 0 161.865143 8.265142 347.867429 347.867429 0 0 0 133.485714-60.854857 59.684571 59.684571 0 0 0 19.894857-66.413714 40.448 40.448 0 0 0-42.569143-19.382857 1053.769143 1053.769143 0 0 1-204.8 8.265143 34.889143 34.889143 0 0 1-25.6-33.206857 1500.598857 1500.598857 0 0 0 147.675429-28.086858 439.734857 439.734857 0 0 1 196.022857-16.603428 729.892571 729.892571 0 0 1 204.8 74.678857 48.128 48.128 0 0 1 22.747428 33.206857 230.765714 230.765714 0 0 1-45.494857 163.181714zM128.797257 631.076571a36.571429 36.571429 0 0 0 17.042286-2.779428 32.768 32.768 0 0 0 14.189714-47.030857 353.28 353.28 0 0 1-39.789714-160.475429 363.885714 363.885714 0 0 1 727.04 0 315.684571 315.684571 0 0 1-11.337143 88.502857 32.694857 32.694857 0 0 0 25.6 41.472 33.718857 33.718857 0 0 0 42.569143-24.868571A431.542857 431.542857 0 1 0 52.0704 420.790857a449.170286 449.170286 0 0 0 45.494857 190.902857 34.962286 34.962286 0 0 0 31.232 19.382857z" fill="#E6A23C" p-id="1522"></path>
    <path d="M597.423543 420.571429H512.138971v-55.369143h85.284572a27.721143 27.721143 0 1 0 0-55.296H506.433829v-2.486857L435.412114 188.489143a32.841143 32.841143 0 0 0-39.789714-11.117714 32.475429 32.475429 0 0 0-11.337143 38.692571l56.832 94.061714h-71.021714a27.721143 27.721143 0 1 0 0 55.296h85.284571v55.296H370.095543a27.721143 27.721143 0 1 0 0 55.296h85.284571v55.296a28.452571 28.452571 0 1 0 56.832 0v-55.296h85.284572a27.721143 27.721143 0 1 0 0-55.296z" fill="#E6A23C" p-id="1523"></path>
    <path d="M537.738971 273.92a29.257143 29.257143 0 0 0 39.789715-11.117714l28.452571-47.030857a27.648 27.648 0 0 0-11.337143-38.692572 29.257143 29.257143 0 0 0-39.789714 11.117714l-28.452571 47.030858a27.648 27.648 0 0 0 11.337142 38.692571z" fill="#E6A23C" p-id="1524"></path>
</svg>