<svg t="1721488518471" class="icon" viewBox="0 0 1024 1024" version="1.1"
    xmlns="http://www.w3.org/2000/svg" p-id="1788" width="200" height="200">
    <path d="M512 64.503937a447.637165 447.637165 0 0 1 174.170709 859.857638A447.637165 447.637165 0 0 1 337.83937 99.638425 444.663937 444.663937 0 0 1 512 64.503937m0-64.503937C229.230866 0 0 229.230866 0 512s229.230866 512 512 512 512-229.230866 512-512S794.769134 0 512 0z" fill="#E6A23C" p-id="1789"></path>
    <path d="M480.433386 381.984252h64.503937v417.431181h-64.503937z" fill="#E6A23C" p-id="1790"></path>
    <path d="M305.829291 374.929134h412.694174v64.503937H305.829291z" fill="#E6A23C" p-id="1791"></path>
    <path d="M339.498331 273.686173l45.611338-45.611338 165.155276 165.155275-45.611339 45.611339z" fill="#E6A23C" p-id="1792"></path>
    <path d="M478.746205 393.237165l166.843464-166.843464 45.612347 45.61033-166.844473 166.843465zM343.705197 552.314961h336.932283v64.503937h-336.932283z" fill="#E6A23C" p-id="1793"></path>
</svg>