<svg t="1723211941840" class="icon" viewBox="0 0 1024 1024" version="1.1"
    xmlns="http://www.w3.org/2000/svg" p-id="1759" width="200" height="200">
    <path d="M514.048 66.901333c-243.370667 0-440.661333 197.290667-440.661333 440.661334s197.290667 440.661333 440.661333 440.661333S954.709333 750.933333 954.709333 507.562667c0-243.712-197.290667-440.661333-440.661333-440.661334z m-51.541333 598.357334c0 26.624-21.845333 48.810667-48.810667 48.810666-26.624 0-48.810667-21.845333-48.810667-48.810666v-316.416c0-26.624 21.845333-48.810667 48.810667-48.810667 26.624 0 48.810667 21.845333 48.810667 48.810667v316.416z m200.704 0c0 26.624-21.845333 48.810667-48.810667 48.810666-26.624 0-48.810667-21.845333-48.810667-48.810666v-316.416c0-26.624 21.845333-48.810667 48.810667-48.810667 26.624 0 48.810667 21.845333 48.810667 48.810667v316.416z m0 0" p-id="1760"></path>
</svg>