<svg t="1721049255006" class="icon" viewBox="0 0 1024 1024" version="1.1"
    xmlns="http://www.w3.org/2000/svg" p-id="1531" width="200" height="200">
    <path d="M345.64929412 551.50829313h332.70141176v-83.17535295h-332.70141176zM345.64929412 717.85899901h332.70141176v-83.17535293h-332.70141176z" fill="#909399" p-id="1532"></path>
    <path d="M553.58767647 850.93956455v-415.8767661h-83.17535294v415.8767661z" fill="#909399" p-id="1533"></path>
    <path d="M312.37915238 343.5699094l174.66824202 174.668242 58.22274733-58.22274734-174.66824202-174.66824061z" fill="#909399" p-id="1534"></path>
    <path d="M653.39810029 285.34716345l-174.66824202 174.66824061 58.22274733 58.22274734 174.66824202-174.668242z" fill="#909399" p-id="1535"></path>
    <path d="M271.058824 88.847059h-60.235295c-66.258824 0-120.470588 54.211765-120.470588 120.470588v662.588235c0 66.258824 54.211765 120.470588 120.470588 120.470589h602.352942c66.258824 0 120.470588-54.211765 120.470588-120.470589v-662.588235c0-66.258824-54.211765-120.470588-120.470588-120.470588h-54.211765v60.235294h54.211765c36.141176 0 60.235294 24.094118 60.235294 60.235294v662.588235c0 30.117647-24.094118 60.235294-60.235294 60.235294h-602.352942c-36.141176 0-60.235294-24.094118-60.235294-60.235294v-662.588235c0-30.117647 24.094118-60.235294 60.235294-60.235294h60.235295v-60.235294z" fill="#909399" p-id="1536"></path>
    <path d="M391.529412 149.082353h240.941176v-60.235294h-240.941176v60.235294z m-60.235294-60.235294c0-36.141176 30.117647-60.235294 60.235294-60.235294h240.941176c30.117647 0 60.235294 24.094118 60.235294 60.235294v60.235294c0 36.141176-30.117647 60.235294-60.235294 60.235294h-240.941176c-30.117647 0-60.235294-24.094118-60.235294-60.235294v-60.235294z" fill="#909399" p-id="1537"></path>
</svg>