<svg t="1722619371043" class="icon" viewBox="0 0 1024 1024" version="1.1"
    xmlns="http://www.w3.org/2000/svg" p-id="1723" width="200" height="200">
    <path d="M841.65888 478.240768c-38.897152 0.1408-75.02592-22.924288-95.255552-60.811776h-24.109568c-20.909568 37.80864-57.337344 60.776448-96.532992 60.868096h-2.4064c-38.569472-0.032256-74.292224-23.16544-94.078464-60.923904h-36.235776c-13.791232 37.15072-45.741056 61.279744-81.11616 61.259776a82.93888 82.93888 0 0 1-9.525248-0.615424h-2.405888c-38.51776-0.099328-74.199552-23.10912-94.127616-60.700672h-18.216448C266.704896 455.05536 230.27712 477.939712 191.115264 477.960704h-1.718272c-20.89984 0.177664-41.35168-6.913024-58.627072-20.3264v491.424256c0 20.103168 24.30464 40.541696 48.168448 40.541696h663.99744c30.14912 0 48.16896-20.606464 48.316928-40.205312V464.858112c-15.384576 8.82688-32.371712 13.411328-49.593856 13.382656z m-112.5888 353.449984H346.079744l54.01088 61.595648c5.254656 5.912064 8.208896 13.981184 8.200192 22.398464 0.07168 8.579584-2.883072 16.832512-8.200192 22.902272-5.313024 5.96992-12.476416 9.310208-19.935744 9.295872-7.458304 0.013824-14.621696-3.325952-19.93472-9.295872L258.33472 822.39488c-2.586624-2.928128-4.639232-6.410752-6.039552-10.24768-1.533952-3.789312-2.305024-7.922176-2.258432-12.096v-0.782848c-0.047104-4.173312 0.72448-8.306688 2.258432-12.095488 1.469952-3.912192 3.511808-7.508992 6.039552-10.63936 5.408256-5.774848 12.52608-9.01376 19.935232-9.072128l450.799616 0.224768c15.49312-0.093696 28.125696 14.137856 28.233728 31.805952-0.026112 17.769984-12.65152 32.167424-28.233216 32.198656z m26.465792-151.9744c-4.374016 11.88096-14.529024 19.652608-25.827328 19.766272H278.319616c-15.581696-0.031232-28.206592-14.429184-28.233728-32.198144-0.004096-8.438272 2.989056-16.51968 8.298496-22.398976 4.931584-5.6832 11.648-8.886784 18.658304-8.903168l0.19712-0.280064h384.561152L607.790592 574.1056c-5.24544-5.91872-8.198144-13.983232-8.200704-22.398464-0.07936-8.596992 2.875392-16.870912 8.200704-22.957568 5.30432-6.026752 12.495872-9.391104 19.983872-9.352192 7.37792 0.009216 14.447616 3.375616 19.64032 9.352192l101.884928 116.192256c8.197632 8.997376 10.677248 22.829568 6.23616 34.774528zM627.28192 398.656512h-1.668608c-60.752384 0.419328-111.5648-52.529152-116.664832-121.568256h-5.891584C498.68544 344.62208 449.98144 397.279744 390.614016 398.656512h-2.307584c-57.255424 0.323072-105.125376-49.565184-109.987328-114.625024-4.667392 64.989696-52.416512 114.930176-109.594112 114.625024h-2.65216c-61.984768-0.093184-112.214016-57.37472-112.2944-128.064-0.568832-19.995648 5.78048-39.44448 17.676288-54.148608l41.39264-134.783488c6.73536-27.429888 28.401664-46.616064 53.37344-47.261184h691.592704c24.904192 0.72448 46.4768 19.897344 53.176832 47.261184l41.393152 134.783488c3.04384 6.718976 6.03904 15.286272 8.934912 23.629824 2.89792 8.344064 5.843968 16.799232 8.93696 23.57504-0.080896 70.688768-50.310144 127.970816-112.294912 128.062976h-0.5888c-53.426176 0.050688-99.845632-41.867264-112.050176-101.185024-12.464128 62.922752-61.376 107.695104-117.941248 107.960832l-0.098304 0.16896z" fill="#E6A23C" p-id="1724"></path>
</svg>