<svg t="1721487398864" class="icon" viewBox="0 0 1024 1024" version="1.1"
    xmlns="http://www.w3.org/2000/svg" p-id="1420" width="200" height="200">
    <path d="M384 896v64H192a64 64 0 0 1-64-64V128a64 64 0 0 1 64-64h640a64 64 0 0 1 64 64v192h-64V128H192v768h192zM320 192h384v64H320V192z m320 768a320 320 0 1 1 0-640 320 320 0 0 1 0 640z m0-64a256 256 0 1 0 0-512 256 256 0 0 0 0 512zM467.648 589.248l-45.248 45.248 154.496 154.496 263.744-263.744-45.248-45.248-218.496 218.496-109.248-109.248z" fill="#3298FF" p-id="1421"></path>
</svg>